<?xml version="1.0" encoding="iso-8859-1"?>
<!-- Generator: Adobe Illustrator 17.1.0, SVG Export Plug-In . SVG Version: 6.00 Build 0)  -->
<!DOCTYPE svg PUBLIC "-//W3C//DTD SVG 1.1//EN" "http://www.w3.org/Graphics/SVG/1.1/DTD/svg11.dtd">
<svg version="1.1" id="Layer_1" xmlns="http://www.w3.org/2000/svg" xmlns:xlink="http://www.w3.org/1999/xlink" x="0px" y="0px"
	 viewBox="0 0 58 40" style="enable-background:new 0 0 58 40;" xml:space="preserve">
<path style="fill-rule:evenodd;clip-rule:evenodd;fill:#ED1F24;" d="M0,0h2v40H0V0z"/>
<path style="fill-rule:evenodd;clip-rule:evenodd;fill:#ED1F24;" d="M56,0h2v40h-2V0z"/>
<path style="fill-rule:evenodd;clip-rule:evenodd;fill:#ED1F24;" d="M2,38h54v2H2V38z"/>
<path style="fill-rule:evenodd;clip-rule:evenodd;fill:#ED1F24;" d="M2,0h54v2H2V0z"/>
<path style="fill:#ED1F24;" d="M10.58,18.667l0.81-2.385h3.315l0.825,2.385h2.61L14.061,8.015h-1.995L7.97,18.667H10.58z
	 M14.286,14.586h-2.505l1.275-3.96L14.286,14.586z"/>
<path style="fill:#ED1F24;" d="M18.876,15.261c0.25,0.66,0.597,1.25,1.043,1.77c0.445,0.52,0.975,0.938,1.59,1.253
	c0.615,0.315,1.292,0.473,2.033,0.473c0.42,0,0.848-0.055,1.283-0.165c0.435-0.11,0.848-0.27,1.238-0.48
	c0.39-0.21,0.737-0.47,1.043-0.78c0.305-0.31,0.538-0.66,0.698-1.05l-2.025-1.185c-0.1,0.27-0.23,0.498-0.39,0.683
	c-0.16,0.185-0.34,0.335-0.54,0.45c-0.2,0.115-0.408,0.2-0.623,0.255c-0.215,0.055-0.423,0.083-0.623,0.083
	c-0.39,0-0.745-0.087-1.065-0.263c-0.32-0.175-0.593-0.413-0.818-0.713c-0.225-0.3-0.4-0.645-0.525-1.035
	c-0.125-0.39-0.188-0.795-0.188-1.215c0-0.39,0.053-0.775,0.158-1.155c0.105-0.38,0.263-0.72,0.472-1.02
	c0.21-0.3,0.475-0.545,0.795-0.735c0.32-0.19,0.7-0.285,1.14-0.285c0.19,0,0.392,0.023,0.608,0.068
	c0.215,0.045,0.422,0.125,0.623,0.24c0.2,0.115,0.385,0.265,0.555,0.45c0.17,0.185,0.31,0.418,0.42,0.698l1.89-1.32
	c-0.34-0.69-0.86-1.25-1.56-1.68c-0.7-0.43-1.525-0.645-2.475-0.645c-0.81,0-1.533,0.155-2.168,0.465
	c-0.635,0.31-1.173,0.715-1.613,1.215c-0.44,0.5-0.775,1.068-1.005,1.703c-0.23,0.635-0.345,1.273-0.345,1.913
	C18.501,13.931,18.626,14.601,18.876,15.261z"/>
<path style="fill:#ED1F24;" d="M8.78,29.263c0.25,0.66,0.597,1.25,1.043,1.77c0.445,0.52,0.975,0.938,1.59,1.253
	c0.615,0.315,1.293,0.472,2.033,0.472c0.42,0,0.848-0.055,1.283-0.165c0.435-0.11,0.848-0.27,1.238-0.48
	c0.39-0.21,0.737-0.47,1.043-0.78c0.305-0.31,0.538-0.66,0.698-1.05l-2.025-1.185c-0.1,0.27-0.23,0.498-0.39,0.683
	c-0.16,0.185-0.34,0.335-0.54,0.45c-0.2,0.115-0.408,0.2-0.623,0.255c-0.215,0.055-0.423,0.083-0.623,0.083
	c-0.39,0-0.745-0.087-1.065-0.263c-0.32-0.175-0.593-0.412-0.818-0.713c-0.225-0.3-0.4-0.645-0.525-1.035
	c-0.125-0.39-0.188-0.795-0.188-1.215c0-0.39,0.052-0.775,0.157-1.155c0.105-0.38,0.263-0.72,0.472-1.02
	c0.21-0.3,0.475-0.545,0.795-0.735c0.32-0.19,0.7-0.285,1.14-0.285c0.19,0,0.392,0.023,0.608,0.067
	c0.215,0.045,0.422,0.125,0.623,0.24c0.2,0.115,0.385,0.265,0.555,0.45c0.17,0.185,0.31,0.418,0.42,0.698l1.89-1.32
	c-0.34-0.69-0.86-1.25-1.56-1.68c-0.7-0.43-1.525-0.645-2.475-0.645c-0.81,0-1.533,0.155-2.168,0.465
	c-0.635,0.31-1.173,0.715-1.613,1.215c-0.44,0.5-0.775,1.068-1.005,1.703c-0.23,0.635-0.345,1.273-0.345,1.913
	C8.405,27.933,8.53,28.603,8.78,29.263z"/>
<path style="fill:#ED1F24;" d="M21.427,30.508v-2.265h4.201v-1.995h-4.201v-2.07h4.891v-2.16h-7.351v10.651h7.486v-2.16H21.427z"/>
<path style="fill:#ED1F24;" d="M35.348,32.668h1.98V22.017h-2.46v6.256l-4.966-6.256h-1.92v10.651h2.46v-6.091L35.348,32.668z"/>
<path style="fill:#ED1F24;" d="M47.485,22.017h-8.956v2.16h3.255v8.491h2.46v-8.491h3.24V22.017z"/>
<path style="fill:#ED1F24;" d="M49.525,32.668v-2.445h-1.95v2.445H49.525z"/>
</svg>
