<?xml version="1.0" encoding="iso-8859-1"?>
<!-- Generator: Adobe Illustrator 17.1.0, SVG Export Plug-In . SVG Version: 6.00 Build 0)  -->
<!DOCTYPE svg PUBLIC "-//W3C//DTD SVG 1.1//EN" "http://www.w3.org/Graphics/SVG/1.1/DTD/svg11.dtd">
<svg version="1.1" id="Layer_1" xmlns="http://www.w3.org/2000/svg" xmlns:xlink="http://www.w3.org/1999/xlink" x="0px" y="0px"
	 viewBox="0 0 200 148" style="enable-background:new 0 0 200 148;" xml:space="preserve">
<path d="M73.809,86.389c-1.344-4.066-3.642-7.783-6.891-11.149c-3.394-3.504-7.851-6.238-13.365-8.204
	c-5.514-1.962-12.655-2.945-21.421-2.945H20.253c1.413-14.583,6.646-26.994,15.699-37.233c9.05-10.235,21.566-19.211,37.55-26.925
	l-9.321-14.935c-20.2,8.835-37.464,21.808-51.8,38.916c-14.336,17.111-21.5,34.077-21.5,50.906c0,18.09,4.163,32.256,12.497,42.491
	c8.333,10.238,20.266,15.356,35.8,15.356c9.885,0,18.466-3.366,25.74-10.097c7.27-6.731,10.909-14.583,10.909-23.56
	C75.826,94.665,75.153,90.458,73.809,86.389z M177.983,86.389c-1.344-4.066-3.642-7.783-6.891-11.149
	c-3.394-3.504-7.851-6.238-13.365-8.204c-5.514-1.962-12.655-2.945-21.421-2.945h-11.879c1.413-14.583,6.646-26.994,15.699-37.233
	c9.05-10.235,21.566-19.211,37.55-26.925l-9.321-14.935c-20.2,8.835-37.464,21.808-51.8,38.916
	c-14.336,17.111-21.5,34.077-21.5,50.906c0,18.09,4.163,32.256,12.497,42.491c8.333,10.238,20.266,15.356,35.8,15.356
	c9.885,0,18.466-3.366,25.74-10.097c7.27-6.731,10.909-14.583,10.909-23.56C180,94.665,179.326,90.458,177.983,86.389z"/>
</svg>
