<?xml version="1.0" encoding="utf-8"?>
<!-- Generator: Adobe Illustrator 15.0.0, SVG Export Plug-In . SVG Version: 6.00 Build 0)  -->
<!DOCTYPE svg PUBLIC "-//W3C//DTD SVG 1.1//EN" "http://www.w3.org/Graphics/SVG/1.1/DTD/svg11.dtd">
<svg version="1.1" id="Layer_1" xmlns="http://www.w3.org/2000/svg" xmlns:xlink="http://www.w3.org/1999/xlink" x="0px" y="0px"
	 width="82px" height="435px" viewBox="0 0 82 435" enable-background="new 0 0 82 435" xml:space="preserve">
<path fill="#CD3333" d="M56.064,72.918c-1.614,0-2.924,1.325-2.924,2.958c0,0.484,0.123,0.931,0.327,1.335
	c-2.679,2.47-6.228,3.99-10.131,3.99c-3.351,0-6.434-1.13-8.939-3.012c0.285-0.455,0.458-0.993,0.458-1.574
	c0-1.632-1.311-2.957-2.928-2.957c-0.488,0-0.939,0.13-1.343,0.346c-1.451-2.336-2.311-5.08-2.311-8.037
	c0-4.098,1.621-7.81,4.235-10.55c0.462,0.311,1.019,0.491,1.614,0.491c1.614,0,2.924-1.321,2.924-2.957
	c0-1.632-1.311-2.957-2.924-2.957c-1.614,0-2.925,1.325-2.925,2.957c0,0.484,0.123,0.932,0.325,1.332
	c-2.914,3.015-4.716,7.135-4.716,11.684c0,2.17,0.426,4.235,1.177,6.138l-7.113-7.192c0.141-0.235,0.228-0.505,0.228-0.802
	c0-0.866-0.697-1.57-1.553-1.57s-1.553,0.704-1.553,1.57c0,0.867,0.697,1.567,1.553,1.567c0.3,0,0.578-0.09,0.812-0.234l8.568,8.658
	c0.173,0.311,0.354,0.621,0.545,0.917c-0.296,0.462-0.47,1.007-0.47,1.596c0,1.632,1.311,2.957,2.925,2.957
	c0.498,0,0.96-0.137,1.368-0.357c0.632,0.487,1.3,0.928,1.997,1.325l6.982,7.062c-0.145,0.238-0.234,0.52-0.234,0.82
	c0,0.867,0.697,1.57,1.553,1.57s1.553-0.704,1.553-1.57c0-0.866-0.697-1.567-1.553-1.567c-0.293,0-0.563,0.087-0.794,0.228
	l-5.535-5.593c1.881,0.758,3.925,1.191,6.073,1.191c4.279,0,8.176-1.646,11.109-4.34c0.463,0.311,1.02,0.491,1.619,0.491
	c1.613,0,2.924-1.322,2.924-2.957C58.988,74.243,57.678,72.918,56.064,72.918L56.064,72.918z M34.123,51.475
	c0.805,0,1.462,0.665,1.462,1.477c0,0.816-0.657,1.48-1.462,1.48s-1.462-0.665-1.462-1.48C32.661,52.14,33.318,51.475,34.123,51.475
	L34.123,51.475z M31.928,78.096c-0.805,0-1.462-0.664-1.462-1.48c0-0.816,0.657-1.477,1.462-1.477c0.809,0,1.462,0.661,1.462,1.477
	C33.39,77.432,32.736,78.096,31.928,78.096L31.928,78.096z M56.064,77.356c-0.207,0-0.401-0.047-0.582-0.123l-0.758-0.769
	c-0.08-0.181-0.123-0.379-0.123-0.588c0-0.816,0.656-1.477,1.461-1.477c0.806,0,1.463,0.661,1.463,1.477S56.87,77.356,56.064,77.356
	L56.064,77.356z"/>
<path fill="#CD3333" d="M52.23,190.479l5.434-5.434c2.209,3.845,1.684,8.835-1.604,12.124c-2.898,2.896-7.119,3.646-10.715,2.271
	l-19.365,19.353c-1.6,1.596-4.195,1.596-5.795,0c-1.6-1.6-1.6-4.195,0-5.795l19.363-19.353c-1.379-3.593-0.628-7.811,2.271-10.709
	c3.289-3.286,8.283-3.813,12.128-1.6l-5.435,5.43c-1.021,1.022-1.018,2.683,0.008,3.705
	C49.544,191.494,51.205,191.502,52.23,190.479L52.23,190.479z M47.471,185.725l3.903-3.899c-2.968-0.878-6.257-0.098-8.511,2.155
	c-2.704,2.704-3.22,6.77-1.563,10.002L21.23,214.044c-1.022,1.021-1.022,2.686,0,3.707c1.021,1.022,2.686,1.022,3.708,0
	l20.071-20.06c3.235,1.657,7.304,1.137,10.009-1.563c2.254-2.254,3.033-5.539,2.155-8.503l-3.899,3.899
	c-1.6,1.592-4.198,1.592-5.795-0.008C45.879,189.916,45.875,187.32,47.471,185.725L47.471,185.725z M23.62,216.426
	c-0.289,0.292-0.766,0.292-1.054,0c-0.292-0.293-0.292-0.762,0-1.055c0.289-0.293,0.762-0.293,1.054,0S23.912,216.137,23.62,216.426
	L23.62,216.426z"/>
<path fill="#CD3333" d="M46.377,370.999h-14.75c-2,0-3.622-1.628-3.622-3.636v-32.727c0-2.009,1.621-3.637,3.622-3.637h14.75
	c2,0,3.621,1.628,3.621,3.637v32.727C49.999,369.371,48.377,370.999,46.377,370.999L46.377,370.999z M48.551,334.637
	c0-1.201-0.975-2.181-2.173-2.181h-14.75c-1.199,0-2.173,0.979-2.173,2.181v32.727c0,1.203,0.975,2.186,2.173,2.186h14.75
	c1.198,0,2.173-0.982,2.173-2.186V334.637L48.551,334.637z M31.191,363.832v-25.391h15.627v25.391H31.191L31.191,363.832z
	 M45.37,339.896H32.639v22.479H45.37V339.896L45.37,339.896z M39.004,367.5c-0.401,0-0.726-0.324-0.726-0.727
	c0-0.403,0.325-0.729,0.726-0.729s0.722,0.325,0.722,0.729C39.727,367.176,39.405,367.5,39.004,367.5L39.004,367.5z M36.711,335.969
	v-1.455h4.467v1.455H36.711L36.711,335.969z"/>
</svg>
