<?xml version="1.0" standalone="no"?>
<!DOCTYPE svg PUBLIC "-//W3C//DTD SVG 1.1//EN" "http://www.w3.org/Graphics/SVG/1.1/DTD/svg11.dtd" >
<svg xmlns="http://www.w3.org/2000/svg" xmlns:xlink="http://www.w3.org/1999/xlink" version="1.1">
<metadata></metadata>
<defs>
<font id="reckonerregular" horiz-adv-x="708" >
<font-face units-per-em="2048" ascent="1536" descent="-512" />
<missing-glyph horiz-adv-x="337" />
<glyph horiz-adv-x="0" />
<glyph unicode="&#xd;" horiz-adv-x="1024" />
<glyph horiz-adv-x="0" />
<glyph horiz-adv-x="0" />
<glyph unicode=" "  horiz-adv-x="337" />
<glyph unicode="&#x09;" horiz-adv-x="337" />
<glyph unicode="&#xa0;" horiz-adv-x="337" />
<glyph unicode="!" horiz-adv-x="286" d="M0 0v178h143v-178h-143zM0 946v488h143v-488l-24 -670h-96z" />
<glyph unicode="&#x22;" horiz-adv-x="464" d="M0 1253v181h143v-181h-71v-166zM178 1253v181h144v-181h-72v-166l-70 166h-2z" />
<glyph unicode="#" horiz-adv-x="849" d="M2 350l16 144h91l38 444h-106l16 143h103l28 353h144l-29 -353h160l31 353h143l-31 -353h101l-17 -143h-96l-37 -444h111l-17 -144h-106l-31 -350h-143l30 350h-161l-31 -350h-143l30 350h-94zM252 494h162l37 444h-160z" />
<glyph unicode="$" horiz-adv-x="714" d="M0 162v151h143v-151q0 -20 21 -21h244q20 0 20 21v538q0 14 -12 19h-252q-68 0 -116 48t-48 116v12v377q0 61 39 106t98 56h78v143h143v-143h76q59 -10 98 -55.5t39 -106.5v-154h-143v154q0 20 -20 20h-244q-20 0 -21 -20v-389q0 -14 13 -19h252q68 0 115.5 -48 t47.5 -116v-172v-366q0 -61 -38.5 -106.5t-98.5 -55.5h-76v-141h-143v141h-78q-59 10 -98 55t-39 107z" />
<glyph unicode="%" horiz-adv-x="1239" d="M0 723q0 -57 37 -99t90 -53h156q53 10 90 52.5t37 99.5v561q0 57 -37 98.5t-90 51.5h-156q-53 -10 -90 -51.5t-37 -98.5v-561zM133 723v561q0 18 19 19h106q18 0 18 -19v-561q0 -18 -18 -18h-106q-18 0 -19 18zM188 -41l578 1507h139l-573 -1507h-144zM686 150 q0 -57 37 -98.5t90 -51.5h156q53 10 90 51t37 99v561q0 57 -37 99t-90 52h-156q-53 -10 -90 -52t-37 -99v-561zM819 150v561q0 18 19 18h106q18 0 19 -18v-561q0 -18 -19 -19h-106q-18 0 -19 19z" />
<glyph unicode="&#x26;" horiz-adv-x="831" d="M0 162v534q0 10 1 18.5t3 18.5q33 39 82 53q-49 14 -82 54q-2 10 -3 19t-1 20v391q0 68 48 116t116 48h250q66 0 113.5 -48.5t47.5 -115.5v-142h-143v142q0 20 -18 20h-250q-20 0 -21 -20v-391q0 -18 21 -19h524v-145h-110v-715h-414h-19q-61 6 -103 52t-42 110zM143 162 q0 -18 21 -19h250q12 0 18 13v546q-6 12 -18 13h-250q-20 0 -21 -19v-534z" />
<glyph unicode="'" horiz-adv-x="286" d="M0 1253v181h143v-181h-71v-166z" />
<glyph unicode="(" horiz-adv-x="432" d="M0 162v1108q0 63 42 110t103 54h19h125v-144h-125q-20 0 -21 -20v-1108q0 -18 21 -19h125v-143h-125h-19q-61 6 -103 52t-42 110z" />
<glyph unicode=")" horiz-adv-x="432" d="M0 0v143h125q20 0 20 21v1108q0 18 -20 18h-125v144h125h18q61 -6 103.5 -52.5t42.5 -109.5v-1108q0 -63 -42 -110.5t-104 -53.5h-18h-125z" />
<glyph unicode="*" horiz-adv-x="847" d="M0 946l209 121l-209 123l72 123l209 -121v242h143v-242l209 121l72 -123l-209 -123l209 -121l-72 -125l-209 121v-240h-143v240l-209 -121z" />
<glyph unicode="+" horiz-adv-x="663" d="M0 614v144h188v188h144v-188h188v-144h-188v-186h-144v186h-188z" />
<glyph unicode="," horiz-adv-x="286" d="M0 0v178h143v-178l-71 -168v168h-72z" />
<glyph unicode="-" horiz-adv-x="661" d="M0 614v144h518v-144h-518zM0 758h518h-518z" />
<glyph unicode="." horiz-adv-x="286" d="M0 0v178h143v-178h-143z" />
<glyph unicode="/" horiz-adv-x="733" d="M-121 -35l578 1508h153l-577 -1508h-154z" />
<glyph unicode="0" d="M0 162v1110q0 61 39 106t98 56h303q57 -10 96 -55.5t39 -106.5v-1110q0 -61 -38.5 -106.5t-96.5 -55.5h-303q-59 10 -98 55t-39 107zM143 158q4 -16 21 -17h250q18 0 18 21v749zM143 500l289 753v19q0 20 -18 20h-250q-20 0 -21 -20v-772z" />
<glyph unicode="1" horiz-adv-x="346" d="M-25 1219v143l95 72h143v-1434h-143v1290z" />
<glyph unicode="2" horiz-adv-x="704" d="M0 0v469l428 494v309q0 18 -18 18h-246q-20 0 -21 -18v-154h-143v154q0 59 39 105t98 57h297q59 -10 98 -56.5t39 -105.5v-359l-428 -497v-256q0 -12 13 -17h260q12 2 12 17v153h143v-313h-571z" />
<glyph unicode="3" horiz-adv-x="704" d="M0 160v153h143v-153q0 -18 21 -19h246q18 0 18 19v358v201h-297v143h297v51v359q0 18 -18 18h-246q-20 0 -21 -18v-154h-143v154q0 59 39 105t98 57h297q59 -10 98 -56.5t39 -105.5v-98v-261v-59q0 -10 -2 -14q-33 -39 -80 -54q51 -14 80 -53q2 -4 2 -12v-203v-260v-98 q0 -59 -38.5 -104.5t-98.5 -55.5h-297q-59 10 -98 55t-39 105z" />
<glyph unicode="4" horiz-adv-x="706" d="M0 338v143l373 953h143v-953h94v-143h-94v-338h-143v338h-373zM154 481h219v553z" />
<glyph unicode="5" d="M0 162v227h143v-227q0 -20 21 -21h250q18 0 18 21v534q0 20 -18 21h-250q-20 0 -21 -21v-69h-143v69v2v736h571v-144h-415q-12 -8 -13 -18v-414h297q57 -10 96 -55t39 -107v-534q0 -61 -38.5 -106.5t-96.5 -55.5h-303q-59 10 -98 55t-39 107z" />
<glyph unicode="6" d="M0 162v1110q0 59 39 105t96 57h303q59 -10 98 -56.5t39 -105.5v-228h-143v228q0 18 -20 18h-250q-18 0 -19 -18v-414h295q59 -10 98 -55t39 -107v-534q0 -61 -38.5 -106.5t-98.5 -55.5h-303q-57 10 -96 55t-39 107zM143 162q0 -20 19 -21h250q20 0 20 21v534q0 20 -20 21 h-250q-18 0 -19 -21v-534z" />
<glyph unicode="7" horiz-adv-x="638" d="M-43 0l410 1290h-367v144h516v-144l-407 -1290h-152z" />
<glyph unicode="8" d="M0 162v532q0 10 1 19.5t3 19.5q33 39 82 53q-49 14 -82 54q-2 10 -3 19t-1 20v391q0 68 48 116t116 48h10h215h25q66 0 113.5 -48.5t47.5 -115.5v-391q0 -10 -1 -19.5t-3 -19.5q-33 -39 -82 -54q53 -14 82 -53q2 -10 3 -19t1 -20v-532q0 -63 -41.5 -109.5t-103.5 -52.5h2 h-287q-61 6 -103 52t-42 110zM143 162q0 -18 21 -19h250q18 0 18 19v532q0 20 -18 21h-250q-20 0 -21 -21v-532zM143 879q0 -18 21 -19h250q18 0 18 19v391q0 20 -18 20h-250q-20 0 -21 -20v-391z" />
<glyph unicode="9" d="M0 162v227h143v-227q0 -20 21 -21h250q18 0 18 21v413h-295q-59 10 -98 55.5t-39 104.5v537q0 59 39 105t98 57h303q57 -10 96 -56.5t39 -105.5v-1110q0 -61 -38.5 -106.5t-96.5 -55.5h-303q-59 10 -98 55t-39 107zM143 735q0 -18 21 -18h250q18 0 18 18v537q0 18 -18 18 h-250q-20 0 -21 -18v-537z" />
<glyph unicode=":" horiz-adv-x="241" d="M-45 0h143v178h-143v-178zM-45 721v178h143v-178h-143z" />
<glyph unicode=";" horiz-adv-x="286" d="M0 0h72v-168l71 168v178h-143v-178zM0 721v178h143v-178h-143z" />
<glyph unicode="&#x3c;" horiz-adv-x="622" d="M2 612l336 275h143l-336 -275l336 -276h-143z" />
<glyph unicode="=" horiz-adv-x="718" d="M0 397v144h575v-144h-575zM0 709v143h575v-145z" />
<glyph unicode="&#x3e;" horiz-adv-x="626" d="M4 338l336 274l-336 277h143l336 -277l-336 -274h-143z" />
<glyph unicode="?" horiz-adv-x="716" d="M0 1118v154q0 59 39 105t98 57h299q59 -10 98 -56.5t39 -105.5v-359l-286 -497v-140h-144v191l287 496v309q0 18 -20 18h-246q-18 0 -19 -18v-154h-145zM143 0v178h144v-178h-144z" />
<glyph unicode="@" horiz-adv-x="1415" d="M0 717q0 147 50 278t137 228.5t204 154t250 56.5t251 -56.5t205 -154t137 -228.5t50 -278q0 -104 -24.5 -199.5t-71.5 -177.5h-162h-121h-82q-16 23 -24 51q-8 -29 -25 -51h-16h-19h-98h-41h-111h-18h2q-61 6 -103 52t-42 110v26v189v215q0 63 42 109t103 53h-2h18h250 h19h28q4 -6 6.5 -14.5t6.5 -16.5q4 8 7 16t7 15h92v-377v-189v-45h201q20 53 31.5 111.5t11.5 122.5q0 119 -40 225.5t-108.5 184t-162 123.5t-197.5 46t-196.5 -46t-161 -123.5t-108.5 -184t-40 -225.5q0 -121 40 -226.5t108.5 -184.5t161 -125t196.5 -46h377l-2 -2h164 v-133h-533h-6q-133 0 -250 56.5t-204 153.5t-137 227t-50 280zM471 502q0 -18 18 -19h111h139q14 0 19 13v32v189v221q-4 12 -19 12h-250q-18 0 -18 -18v-215v-189v-26z" />
<glyph unicode="A" horiz-adv-x="718" d="M-16 0l229 1434h197l229 -1434h-145l-54 340h-258l-53 -340h-145zM207 483h211l-107 662z" />
<glyph unicode="B" d="M0 0v1434h414q66 0 113.5 -48.5t47.5 -115.5v-389q0 -10 -1 -20.5t-3 -20.5q-31 -37 -82 -52q29 -10 47.5 -23t34.5 -32q2 -10 3 -18t1 -19v-532q0 -68 -48 -116t-113 -48h-414zM143 143h271q18 0 18 21v532q0 18 -18 19h-271v-572zM143 860h271q18 0 18 21v389 q0 20 -18 20h-271v-430z" />
<glyph unicode="C" horiz-adv-x="704" d="M0 162v1110q0 61 39 106t98 56h299q59 -10 97 -55.5t38 -106.5v-154h-143v154q0 20 -18 20h-246q-20 0 -21 -20v-1110q0 -20 21 -21h246q18 0 18 21v153h143v-153q0 -61 -37.5 -106.5t-97.5 -55.5h-299q-59 10 -98 55t-39 107z" />
<glyph unicode="D" horiz-adv-x="704" d="M0 0v1434h143h265q68 0 115.5 -49.5t47.5 -116.5v-1106q0 -66 -48 -114t-115 -48h-271h-137zM143 143h265q20 0 20 19v1106q0 20 -20 20h-265v-1145z" />
<glyph unicode="E" horiz-adv-x="649" d="M0 0v1434h516v-144h-373v-428h299v-143h-299v-576h373v-143h-516z" />
<glyph unicode="F" horiz-adv-x="649" d="M0 0v1434h516v-144h-373v-428h299v-143h-299v-719h-143z" />
<glyph unicode="G" horiz-adv-x="704" d="M0 162v1110q0 61 39 106t98 56h297q59 -10 98 -55.5t39 -106.5v-150h-143v150q0 20 -20 20h-244q-20 0 -21 -20v-1110q0 -20 21 -21h244q20 0 20 21v557h-170v143h313v-143v-557q0 -61 -38.5 -106.5t-98.5 -55.5h-297q-59 10 -98 55t-39 107z" />
<glyph unicode="H" horiz-adv-x="704" d="M0 0v1434h143v-574h285v574h143v-1434h-143v717h-285v-717h-143z" />
<glyph unicode="I" horiz-adv-x="276" d="M0 0v1434h143v-1434h-143z" />
<glyph unicode="J" horiz-adv-x="702" d="M0 164v149h143v-149q0 -20 19 -21h246q18 0 18 21v1270h143v-1270q0 -61 -38.5 -106.5t-96.5 -55.5v-2h-26h-246h-25v2q-59 10 -98 55t-39 107z" />
<glyph unicode="K" d="M0 0v2v1430v2h143v-2v-568h2l273 570h160l-265 -545l265 -889h-152l-203 700l-80 -159v-541h-143z" />
<glyph unicode="L" horiz-adv-x="651" d="M0 0v145v1289h143v-1289h373v-145h-516z" />
<glyph unicode="M" horiz-adv-x="933" d="M0 0v1434h219l182 -1061l183 1061h217v-1434h-144v1020l-159 -916h-195l-160 916v-1020h-143z" />
<glyph unicode="N" horiz-adv-x="706" d="M0 0v1434h143v-2l287 -947v949h143v-1434h-143h-4l-283 946v-946h-143z" />
<glyph unicode="O" d="M0 162v1110q0 61 39 106t98 56h301q59 -10 98 -55.5t39 -106.5v-1110q0 -61 -38.5 -106.5t-98.5 -55.5h-301q-59 10 -98 55t-39 107zM143 162q0 -20 21 -21h250q18 0 18 21v1110q0 20 -18 20h-250q-20 0 -21 -20v-1110z" />
<glyph unicode="P" d="M0 0v1434h141h2h269q68 0 115.5 -48.5t47.5 -115.5v-389q0 -68 -48 -116t-115 -48h-269v-717h-143zM143 860h269q20 0 20 21v389q0 20 -20 20h-269v-430z" />
<glyph unicode="Q" d="M0 162v1110q0 61 39 106t98 56h301q59 -10 98 -55.5t39 -106.5v-1110q0 -61 -38.5 -106.5t-98.5 -55.5h-63l92 -231h-150l-94 231h-86q-59 10 -98 55t-39 107zM143 162q0 -20 21 -21h250q18 0 18 21v1110q0 20 -18 20h-250q-20 0 -21 -20v-1110z" />
<glyph unicode="R" d="M0 0v1434h412q68 0 115.5 -48.5t47.5 -115.5v-389q0 -68 -48 -116t-115 -48h-50l213 -717h-153l-248 860h238q20 0 20 21v389q0 20 -20 20h-269v-1290h-143z" />
<glyph unicode="S" horiz-adv-x="684" d="M0 162v153h143v-153q0 -20 21 -21h223q20 0 21 21v538q0 14 -13 19h-231q-68 0 -116 48t-48 116v389q0 61 39 106t98 56h277q59 -10 98 -55.5t39 -106.5v-154h-143v154q0 20 -21 20h-223q-20 0 -21 -20v-389q0 -14 13 -19h231q70 0 117 -48t47 -116v-538 q0 -61 -39 -106.5t-98 -55.5h-277q-59 10 -98 55t-39 107z" />
<glyph unicode="T" horiz-adv-x="677" d="M0 1290v144h545v-144h-201v-1290h-143v1290h-201z" />
<glyph unicode="U" horiz-adv-x="702" d="M0 162v1270h143v-1270q0 -20 21 -21h244q18 0 18 21v1270h143v-1270q0 -61 -37.5 -106.5t-97.5 -55.5h-297q-59 10 -98 55t-39 107z" />
<glyph unicode="V" horiz-adv-x="778" d="M0 1434h145l183 -1147l182 1147h145l-229 -1434h-197z" />
<glyph unicode="W" horiz-adv-x="1083" d="M0 1434h145l134 -1147l151 792h127l135 -792l131 1147h146l-178 -1434h-197l-109 627l-108 -627h-197z" />
<glyph unicode="X" horiz-adv-x="788" d="M0 1434h158l176 -553l174 553h158l-220 -650l218 -784h-152l-178 680l-178 -680h-154l217 784z" />
<glyph unicode="Y" horiz-adv-x="770" d="M0 1434h145l179 -654l178 654h145l-252 -940v-494h-143v494z" />
<glyph unicode="Z" horiz-adv-x="649" d="M0 0v143l365 1147h-365v144h516v-144l-366 -1147h366v-143h-516z" />
<glyph unicode="[" horiz-adv-x="421" d="M0 0v1434h279v-144h-136v-1143h136v-147h-279z" />
<glyph unicode="\" horiz-adv-x="645" d="M-147 1434h145l555 -1434h-150z" />
<glyph unicode="]" horiz-adv-x="421" d="M0 0v143h135v1143h-135v148h279v-1434h-279z" />
<glyph unicode="^" horiz-adv-x="694" d="M0 954v144l276 336l275 -336v-144l-275 336z" />
<glyph unicode="_" horiz-adv-x="1054" d="M0 0h922v-143h-922v143z" />
<glyph unicode="`" horiz-adv-x="286" d="M0 1253v181h143v-181v-166z" />
<glyph unicode="a" horiz-adv-x="714" d="M-20 0l55 340h-55v143h77l152 951h197l229 -1434h-146l-182 1145l-104 -662h104v-143h-127l-55 -340h-145z" />
<glyph unicode="b" d="M0 0v860h143l-143 430v144h414q68 0 114.5 -48.5t46.5 -115.5v-389v-20.5t-4 -20.5q-27 -35 -79 -52q55 -18 79 -55q4 -10 4 -18v-19v-532q0 -68 -47 -116t-114 -48h-414zM143 143h271q18 0 18 21v532q0 20 -18 21h-271v-574zM143 860h271q18 0 18 21v389q0 20 -18 20 h-271v-430z" />
<glyph unicode="c" horiz-adv-x="704" d="M0 162v1110q0 61 39 106t98 56h299q59 -10 97 -55.5t38 -106.5v-154h-143v154q0 20 -18 20h-246q-20 0 -21 -20v-1110q0 -20 21 -21h246q18 0 18 21v153h143v-153q0 -61 -37.5 -106.5t-97.5 -55.5h-299q-59 10 -98 55t-39 107z" />
<glyph unicode="d" horiz-adv-x="704" d="M0 0v860h143l-143 430v144h408q68 0 115.5 -49.5t47.5 -116.5v-1106q0 -66 -48 -114t-115 -48h-408zM143 143h265q20 0 20 19v1106q0 20 -20 20h-265v-1145z" />
<glyph unicode="e" horiz-adv-x="649" d="M0 0v860h143l-143 430v144h516v-144h-373v-430h299v-143h-299v-574h373v-143h-516z" />
<glyph unicode="f" horiz-adv-x="649" d="M0 0v860h143l-143 430v144h516v-144h-373v-430h299v-143h-299v-717h-143z" />
<glyph unicode="g" horiz-adv-x="704" d="M0 162v1110q0 61 39 106t98 56h297q59 -10 98 -55.5t39 -106.5v-150h-143v150q0 20 -20 20h-244q-20 0 -21 -20v-1110q0 -20 21 -21h244q20 0 20 21v557h-170v143h313v-143v-557q0 -61 -38.5 -106.5t-98.5 -55.5h-297q-59 10 -98 55t-39 107z" />
<glyph unicode="h" horiz-adv-x="704" d="M0 0v860h143l-143 430v144h143v-574h285v574h143v-1434h-143v717h-285v-717h-143z" />
<glyph unicode="i" horiz-adv-x="276" d="M0 0v1434h143v-1434h-143z" />
<glyph unicode="j" horiz-adv-x="702" d="M0 164v149h143v-149q0 -20 19 -21h246q18 0 18 21v1270h143v-1270q0 -61 -38.5 -106.5t-96.5 -55.5v-2h-26h-246h-25v2q-59 10 -98 55t-39 107z" />
<glyph unicode="k" horiz-adv-x="706" d="M0 0v860v2h143l-143 428v144h141h2v-144v-428h2l273 572h157l-264 -547l264 -887h-153l-201 698l-78 -159v-539h-143z" />
<glyph unicode="l" horiz-adv-x="651" d="M0 0v145v1289h143v-1289h373v-145h-516z" />
<glyph unicode="m" horiz-adv-x="933" d="M0 0v1434h219l182 -1061l183 1061h217v-1434h-144v1020l-159 -916h-195l-160 916v-1020h-143z" />
<glyph unicode="n" horiz-adv-x="706" d="M0 0v1434h143v-2l287 -947v949h143v-1434h-143h-4l-283 946v-946h-143z" />
<glyph unicode="o" d="M0 162v1110q0 61 39 106t98 56h301q59 -10 98 -55.5t39 -106.5v-1110q0 -61 -38.5 -106.5t-98.5 -55.5h-301q-59 10 -98 55t-39 107zM143 162q0 -20 21 -21h250q18 0 18 21v1110q0 20 -18 20h-250q-20 0 -21 -20v-1110z" />
<glyph unicode="p" d="M0 0v860h143l-143 430v144h141h2h271q66 0 113.5 -48.5t47.5 -115.5v-389q0 -68 -48 -116t-113 -48h-271v-717h-143zM143 860h271q18 0 18 21v389q0 20 -18 20h-271v-430z" />
<glyph unicode="q" d="M0 162v1110q0 61 39 106t98 56h301q59 -10 98 -55.5t39 -106.5v-1110q0 -61 -38.5 -106.5t-98.5 -55.5h-63l92 -231h-150l-94 231h-86q-59 10 -98 55t-39 107zM143 162q0 -20 21 -21h250q18 0 18 21v1110q0 20 -18 20h-250q-20 0 -21 -20v-1110z" />
<glyph unicode="r" d="M0 0v860h143v-860h-143zM0 1290v144h414q66 0 113.5 -48.5t47.5 -115.5v-389q0 -68 -48 -116t-113 -48h-52l213 -717h-153l-248 860h240q18 0 18 21v389q0 20 -18 20h-271v-430z" />
<glyph unicode="s" horiz-adv-x="684" d="M0 162v153h143v-153q0 -20 21 -21h223q20 0 21 21v538q0 14 -13 19h-231q-68 0 -116 48t-48 116v389q0 61 39 106t98 56h277q59 -10 98 -55.5t39 -106.5v-154h-143v154q0 20 -21 20h-223q-20 0 -21 -20v-389q0 -14 13 -19h231q70 0 117 -48t47 -116v-538 q0 -61 -39 -106.5t-98 -55.5h-277q-59 10 -98 55t-39 107z" />
<glyph unicode="t" horiz-adv-x="677" d="M0 1290v144h545v-144h-201v-1290h-143v1290h-201z" />
<glyph unicode="u" horiz-adv-x="702" d="M0 162v1270h143v-1270q0 -20 21 -21h244q18 0 18 21v1270h143v-1270q0 -61 -37.5 -106.5t-97.5 -55.5h-297q-59 10 -98 55t-39 107z" />
<glyph unicode="v" horiz-adv-x="778" d="M0 1434h145l183 -1147l182 1147h145l-229 -1434h-197z" />
<glyph unicode="w" horiz-adv-x="1083" d="M0 1434h145l134 -1147l151 792h127l135 -792l131 1147h146l-178 -1434h-197l-109 627l-108 -627h-197z" />
<glyph unicode="x" horiz-adv-x="788" d="M0 1434h158l176 -553l174 553h158l-220 -650l218 -784h-152l-178 680l-178 -680h-154l217 784z" />
<glyph unicode="y" horiz-adv-x="770" d="M0 1434h145l179 -654l178 654h145l-252 -940v-494h-143v494z" />
<glyph unicode="z" horiz-adv-x="653" d="M0 0v143l184 574h-184v143h229l138 430h-367v144h518v-144l-137 -430h139v-143h-186l-182 -574h366v-143h-518z" />
<glyph unicode="{" horiz-adv-x="464" d="M-82 653v144h96q20 0 21 20v453q0 68 47 116t115 48h125v-144h-125q-18 0 -19 -20v-453q0 -10 -1 -18t-3 -19q-29 -37 -82 -55q51 -14 82 -51q2 -10 3 -20.5t1 -20.5v-471q0 -18 19 -19h125v-143h-144h2q-61 6 -103 52t-42 110v471q0 20 -21 20h-96z" />
<glyph unicode="|" horiz-adv-x="286" d="M0 -211v1837h143v-1837h-143z" />
<glyph unicode="}" horiz-adv-x="516" d="M0 0v143h125q18 0 18 21v452q0 10 1 18.5t3 18.5q29 37 82 56q-51 14 -82 51q-2 10 -3 20.5t-1 20.5v471q0 18 -18 18h-125v144h143h-2q61 -6 103.5 -52.5t42.5 -109.5v-471q0 -20 20 -21h96v-143h-96q-20 0 -20 -21v-452q0 -68 -47 -116t-115 -48h-125z" />
<glyph unicode="~" horiz-adv-x="751" d="M0 369v141q41 45 79 62.5t79 17.5q39 0 76.5 -12.5t76.5 -27.5t76 -27.5t74 -12.5q39 0 74.5 17.5t72.5 64.5v-143q-41 -43 -80 -60.5t-77 -17.5q-41 0 -80 12t-77 26.5t-76 27t-75 12.5t-72.5 -17.5t-70.5 -62.5z" />
<glyph unicode="&#xad;" horiz-adv-x="661" d="M0 614v144h518v-144h-518zM0 758h518h-518z" />
<glyph unicode="&#x2dc;" horiz-adv-x="751" d="M0 369v141q41 45 79 62.5t79 17.5q39 0 76.5 -12.5t76.5 -27.5t76 -27.5t74 -12.5q39 0 74.5 17.5t72.5 64.5v-143q-41 -43 -80 -60.5t-77 -17.5q-41 0 -80 12t-77 26.5t-76 27t-75 12.5t-72.5 -17.5t-70.5 -62.5z" />
<glyph unicode="&#x2000;" horiz-adv-x="813" />
<glyph unicode="&#x2001;" horiz-adv-x="1626" />
<glyph unicode="&#x2002;" horiz-adv-x="813" />
<glyph unicode="&#x2003;" horiz-adv-x="1626" />
<glyph unicode="&#x2004;" horiz-adv-x="542" />
<glyph unicode="&#x2005;" horiz-adv-x="406" />
<glyph unicode="&#x2006;" horiz-adv-x="271" />
<glyph unicode="&#x2007;" horiz-adv-x="271" />
<glyph unicode="&#x2008;" horiz-adv-x="203" />
<glyph unicode="&#x2009;" horiz-adv-x="325" />
<glyph unicode="&#x200a;" horiz-adv-x="90" />
<glyph unicode="&#x2010;" horiz-adv-x="661" d="M0 614v144h518v-144h-518zM0 758h518h-518z" />
<glyph unicode="&#x2011;" horiz-adv-x="661" d="M0 614v144h518v-144h-518zM0 758h518h-518z" />
<glyph unicode="&#x2012;" horiz-adv-x="661" d="M0 614v144h518v-144h-518zM0 758h518h-518z" />
<glyph unicode="&#x2013;" horiz-adv-x="1167" d="M0 614v144h1024v-144h-1024zM0 758h1024h-1024z" />
<glyph unicode="&#x2014;" horiz-adv-x="2191" d="M0 614v144h2048v-144h-2048zM0 758h2048h-2048z" />
<glyph unicode="&#x2018;" horiz-adv-x="286" d="M0 1253v181h143v-181h-71v-166z" />
<glyph unicode="&#x2019;" horiz-adv-x="286" d="M0 1253v181h143v-181h-2l-69 -166v166h-72z" />
<glyph unicode="&#x201c;" horiz-adv-x="464" d="M0 1253v181h143v-181h-71v-166zM178 1253v181h144v-181h-72v-166l-70 166h-2z" />
<glyph unicode="&#x201d;" horiz-adv-x="464" d="M0 1253v181h143v-181h-2l-69 -166v166h-72zM178 1253v181h144v-181l-72 -166v166h-72z" />
<glyph unicode="&#x2022;" horiz-adv-x="636" d="M0 614q0 45 17.5 84t46 68t68.5 46t85 17t84 -17t67.5 -46t46 -68t17.5 -84t-17.5 -85t-46 -68.5t-67.5 -46t-84 -17.5q-92 0 -154.5 62.5t-62.5 154.5z" />
<glyph unicode="&#x202f;" horiz-adv-x="325" />
<glyph unicode="&#x205f;" horiz-adv-x="406" />
<glyph unicode="&#x25fc;" horiz-adv-x="1433" d="M0 0v1434h1434v-1434h-1434z" />
</font>
</defs>
</svg>
