<?xml version="1.0" standalone="no"?>
<!DOCTYPE svg PUBLIC "-//W3C//DTD SVG 1.1//EN" "http://www.w3.org/Graphics/SVG/1.1/DTD/svg11.dtd" >
<svg xmlns="http://www.w3.org/2000/svg" xmlns:xlink="http://www.w3.org/1999/xlink" version="1.1">
<metadata></metadata>
<defs>
<font id="reckoner_boldcondensed_bold" horiz-adv-x="784" >
<font-face units-per-em="2048" ascent="1536" descent="-512" />
<missing-glyph horiz-adv-x="337" />
<glyph horiz-adv-x="0" />
<glyph unicode="&#xd;" horiz-adv-x="337" />
<glyph horiz-adv-x="0" />
<glyph horiz-adv-x="0" />
<glyph unicode=" "  horiz-adv-x="337" />
<glyph unicode="&#x09;" horiz-adv-x="337" />
<glyph unicode="&#xa0;" horiz-adv-x="337" />
<glyph unicode="!" horiz-adv-x="368" d="M0 0v238h225v-238h-225zM2 1397v37h225v-37l-39 -1100h-145z" />
<glyph unicode="&#x22;" horiz-adv-x="622" d="M0 786v238h225v-238h-94v-168zM264 786v238h225v-238h-92v-168z" />
<glyph unicode="#" horiz-adv-x="935" d="M4 307l6 47l17 144l4 37h37h53l31 362h-62h-47l6 45l17 145l4 35h36h64l27 312h227l-2 -4l-25 -308h78l27 312h227l-2 -4l-25 -308h54h47l-6 -45l-17 -143l-4 -37h-37h-57l-31 -362h66h47l-6 -48l-17 -143l-4 -37h-37h-69l-27 -307h-225l27 307h-80l-27 -307h-225l26 307 h-49h-47zM346 535h80l31 362h-80z" />
<glyph unicode="$" horiz-adv-x="796" d="M0 203v153v41h41h143h41v-41v-133h203v494h-223q-43 0 -81 16.5t-65.5 44t-43 64.5t-15.5 80v12v20v277q0 78 49 133q47 57 121 70h4h4h35v143h225v-143h37h4h2q76 -13 123 -70q49 -55 49 -133v-154v-41h-41h-143h-41v41v133h-203v-256v-10h224q86 0 145 -59.5t59 -145.5 v-207v-329q0 -78 -49 -133q-47 -57 -123 -70h-2h-4h-37v-143h-225v143h-35h-4h-4q-74 12 -121 70q-49 55 -49 133z" />
<glyph unicode="%" horiz-adv-x="1331" d="M2 793v512q0 49 30.5 84.5t78.5 44.5h231q47 -8 79 -44t32 -85v-123v-49v-5v-213v-122q0 -47 -32 -84t-79 -45h-231q-47 8 -78 44.5t-31 84.5zM182 844h90v71v213v5v49v73h-90v-411zM197 -39l6 14l571 1493h211l-6 -16l-561 -1491h-221zM737 129v510q0 49 32 85t79 44 h231q47 -8 78 -44t31 -85v-123v-47v-4v-213v-2v-121q0 -49 -31 -85t-78 -44h-231q-47 8 -79 44t-32 85zM920 178h88v72v215v4v47v74h-88v-412z" />
<glyph unicode="&#x26;" horiz-adv-x="931" d="M0 205v508q0 25 6 47v2q29 29 72 43q-20 6 -37.5 14t-32.5 21l-2 6q-6 25 -6 51v334q0 43 16.5 80t44 64.5t64.5 43t78 15.5h250q86 0 145 -58.5t59 -144.5v-105h-225v82h-207v-290h203v51v41h41h143h41v-41v-51h135v-226h-129v-651v-41h-456h-17h-2l-2 2q-76 6 -129 66 q-53 59 -53 137zM225 225h207v467h-207v-467z" />
<glyph unicode="'" horiz-adv-x="358" d="M0 786v238h225v-238h-94v-168z" />
<glyph unicode="(" horiz-adv-x="514" d="M0 203v82v944q0 78 53 137t129 66l2 2h2h19h125h41v-41v-144v-41h-41h-105v-923v-60h105h41v-41v-143v-41h-41h-125h-19h-2h-2q-76 6 -129 66q-53 59 -53 137z" />
<glyph unicode=")" horiz-adv-x="514" d="M0 0v41v143v41h41h104v922v61h-104h-41v41v144v41h41h125h18h2l2 -2q74 -6 129 -66q53 -59 54 -137v-82v-944q0 -78 -54 -137q-55 -59 -129 -66h-2h-2h-18h-125h-41z" />
<glyph unicode="*" horiz-adv-x="899" d="M4 950l170 109l-170 110l123 189l141 -92v168h226v-168l141 92l123 -189l-170 -110l170 -109l-123 -190l-141 92v-168h-226v168l-141 -92z" />
<glyph unicode="+" horiz-adv-x="827" d="M0 614v226h229v231h226v-231h229v-226h-229v-229h-226v229h-229z" />
<glyph unicode="," horiz-adv-x="368" d="M0 0v238h225v-238l-131 -166v166h-94z" />
<glyph unicode="-" horiz-adv-x="663" d="M0 614v226h520v-226h-520z" />
<glyph unicode="." horiz-adv-x="368" d="M0 0v238h225v-238h-225z" />
<glyph unicode="/" horiz-adv-x="741" d="M-193 -39l578 1509h231l-577 -1509h-232z" />
<glyph unicode="0" horiz-adv-x="786" d="M2 162v1110q0 61 39 106t96 56h379q59 -10 98 -55.5t39 -106.5v-1110q0 -61 -39 -106.5t-98 -55.5h-379q-57 10 -96 55t-39 107zM227 223h201v90v455l-201 -522v-23zM227 647l201 522v41h-201v-563z" />
<glyph unicode="1" horiz-adv-x="419" d="M-33 1137v225l94 70v2h226v-1434h-226v1206z" />
<glyph unicode="2" horiz-adv-x="786" d="M0 0v41v469v14l10 13l418 397v276h-203v-129h-225v150q0 74 49 133q47 57 123 70h2h4h297h4h4q74 -13 121 -70q49 -55 49 -133v-361v-16l-8 -10l-420 -402v-217h203v111v41h41h143h41v-41v-295v-41h-41h-571h-41z" />
<glyph unicode="3" d="M-2 201v131h225v-111h203v492h-256h-41v41v143v41h41h256v10v260h-203v-131h-225v152q0 78 49 133q47 57 121 70h4h4h297h4h2q76 -13 123 -70q49 -55 49 -133v-340v-4v-2q-2 -4 -2 -9.5t-2 -9.5l-2 -8l-2 -2q-25 -20 -68 -35q49 -16 74 -43q0 -8 2 -14v-2v-4v-555 q0 -78 -49 -133q-47 -57 -123 -70h-2h-4h-297h-4h-4q-74 12 -121 70q-49 55 -49 133z" />
<glyph unicode="4" horiz-adv-x="790" d="M2 299v41v143v9l2 6l373 905l10 27h29h143h41v-41v-865h53h41v-41v-143v-41h-41h-53v-258v-41h-41h-143h-41v41v258h-332h-41zM258 524h117v293z" />
<glyph unicode="5" horiz-adv-x="790" d="M0 203v131h225v-111h207v496h-207v-88h-225v803h653v-215h-428v-277h254h4h2q74 -13 123 -68q49 -59 49 -133v-538q0 -74 -49 -133q-47 -57 -123 -70h-2h-4h-303h-2h-4q-74 12 -121 70q-49 55 -49 133z" />
<glyph unicode="6" horiz-adv-x="790" d="M0 203v1024q0 78 49 133q47 57 121 70h4h2h303h4h4q74 -12 121 -70q49 -59 49 -133v-131h-225v110h-207v-268h254h4h4q74 -12 121 -70q49 -59 49 -133v-532q0 -74 -49 -133q-47 -57 -121 -70h-4h-4h-303h-2h-4q-74 13 -121 70q-49 55 -49 133zM225 223h207v492h-207v-492 z" />
<glyph unicode="7" horiz-adv-x="729" d="M-47 2l16 53l381 1151h-350v226h598v-185v-6l-2 -6l-395 -1204l-11 -29h-28h-154h-55z" />
<glyph unicode="8" horiz-adv-x="790" d="M0 162v567q0 10 1 19.5t3 19.5q33 39 82 53q-55 16 -86 53v396q0 68 48 116t116 48h332q68 0 114.5 -48.5t46.5 -115.5v-396q-27 -37 -84 -53q51 -14 80 -53q4 -10 4 -19.5v-19.5v-567q0 -68 -47 -115t-114 -47h-332q-68 0 -116 47t-48 115zM225 225h207v492h-207v-492z M225 942h207v264h-207v-264z" />
<glyph unicode="9" horiz-adv-x="790" d="M0 203v131h225v-111h207v275h-256h-2l-4 2q-72 10 -121 67q-49 55 -49 133v531q0 78 49 133q47 57 121 70h309h4h4q74 -13 121 -70q49 -59 49 -133v-1028q0 -74 -49 -133q-47 -57 -121 -70h-4h-4h-303h-2h-4q-74 12 -121 70q-49 55 -49 133zM225 721h207v489h-207v-489z " />
<glyph unicode=":" horiz-adv-x="368" d="M0 0v238h225v-238h-225zM0 721v237h225v-237h-225z" />
<glyph unicode=";" horiz-adv-x="368" d="M0 2h94v-166l131 166v238h-225v-238zM0 723v238h225v-238h-225z" />
<glyph unicode="&#x3c;" horiz-adv-x="739" d="M2 614l39 33l295 244h272l-37 -33l-297 -244l297 -243l37 -33h-272l-295 246z" />
<glyph unicode="=" horiz-adv-x="882" d="M0 299v225h750v-225h-750zM0 702v226h750v-226h-750z" />
<glyph unicode="&#x3e;" horiz-adv-x="739" d="M0 338l37 33l297 243l-297 244l-37 33h272l295 -246l39 -31l-39 -32l-295 -244h-272z" />
<glyph unicode="?" horiz-adv-x="794" d="M0 1077q0 76 3 125t9 81t15.5 49.5t21.5 31.5q49 59 123 70h6h297h4h4q35 -4 66.5 -22.5t54.5 -47.5q49 -55 49 -133v-328l-284 -500v-96h-228v172l287 496v233h-203v-131h-225zM143 0v238h226v-238h-226z" />
<glyph unicode="@" horiz-adv-x="1439" d="M-2 719q0 145 49 278q25 63 58.5 121t78.5 107q88 96 205 153q125 57 252 58q127 0 252 -58q115 -55 205 -153q90 -100 137 -228q51 -129 51 -278q0 -100 -24.5 -195.5t-71.5 -181.5l-6 -12h-15h-155h-117h-66q-25 23 -36 63q-6 -18 -14.5 -34.5t-20.5 -28.5h-6h-19h-94 h-39h-108h-17h-2q-72 10 -115 59q-47 53 -47 123v25v182v207q0 70 47 123t115 59h2h17h241h19h24q6 -10 9.5 -18.5t7.5 -18.5q4 10 8 18.5t8 18.5h86h23v-25v-364v-182v-21h153q35 98 35 203q0 111 -37 209t-100.5 172t-148.5 115.5t-181 41.5t-181 -41.5t-147.5 -115.5 t-99.5 -172.5t-37 -208.5q0 -111 37 -209t99.5 -172t147.5 -116t181 -42h25h340h67l-2 -2h90h23v-22v-131v-23h-23h-514h-4h-2h-4h-14q-123 4 -234 55q-115 55 -205 156q-88 96 -137 227t-49 279zM500 516h102h129v21v182v203h-231v-203v-182v-21z" />
<glyph unicode="A" horiz-adv-x="821" d="M2 0l229 1436h279l231 -1436h-229l-47 301h-186l-50 -301h-227zM313 526h115l-57 465z" />
<glyph unicode="B" horiz-adv-x="745" d="M0 0v1434h449q68 0 115.5 -48.5t47.5 -115.5v-398q-29 -35 -86 -51q53 -18 82 -53q2 -10 3 -19.5t1 -19.5v-567q0 -68 -48 -115t-115 -47h-449zM225 225h162v492h-162v-492zM225 942h162v264h-162v-264z" />
<glyph unicode="C" d="M0 162v1110q0 61 39 106t98 56h377q59 -10 98 -55.5t39 -106.5v-152v-65h-225v65v90h-201v-987h201v92v66h225v-66v-153q0 -61 -39 -106.5t-98 -55.5h-377q-59 10 -98 55t-39 107z" />
<glyph unicode="D" d="M0 0v1434h143h344q68 0 116 -49.5t48 -116.5v-1104q0 -68 -48 -116t-116 -48h-350h-137zM225 227h201v981h-201v-981z" />
<glyph unicode="E" horiz-adv-x="718" d="M0 0v150v1208v76h225h361v-144v-82h-361v-268h287v-41v-143v-41h-287v-490h361v-82v-143h-361h-225z" />
<glyph unicode="F" horiz-adv-x="718" d="M0 0v150v1208v76h225h361v-144v-82h-361v-268h287v-41v-143v-41h-287v-715h-225z" />
<glyph unicode="G" d="M0 160v1112q0 59 39 105t98 57h377q59 -10 98 -56.5t39 -105.5v-219h-225v155h-201v-985h201v494h-94v225h319v-782q0 -59 -39 -104.5t-98 -55.5h-377q-59 10 -98 55t-39 105z" />
<glyph unicode="H" horiz-adv-x="782" d="M0 0v1434h143h82v-492h199v492h37h143h45v-1434h-45h-143h-37v717h-199v-717h-82h-143z" />
<glyph unicode="I" horiz-adv-x="358" d="M0 0v1434h225v-1434h-225z" />
<glyph unicode="J" d="M0 160v153v66h225v-66v-90h201v985v226h225v-1182v-92q0 -59 -39 -104.5t-98 -55.5h-377q-59 10 -98 55t-39 105z" />
<glyph unicode="K" horiz-adv-x="776" d="M0 0v662v141v2v487v142h225v-492l189 490h250l-267 -607l260 -825h-55h-151h-31l-166 528l-29 -57v-471h-41h-143h-41z" />
<glyph unicode="L" horiz-adv-x="718" d="M0 0v225v1209h225v-1209h357v-225h-357h-225z" />
<glyph unicode="M" horiz-adv-x="1030" d="M0 0v1434h350l99 -572l98 572h350v-1434h-225v770l-125 -664h-197l-125 664v-770h-225z" />
<glyph unicode="N" horiz-adv-x="788" d="M0 0v1434h82h143v-4l205 -676v680h82h143v-1434h-225l-205 641v-641h-225z" />
<glyph unicode="O" horiz-adv-x="782" d="M0 160v1112q0 59 39 105t96 57h379q57 -10 96 -56.5t39 -105.5v-154v-61v-4v-740v-153q0 -59 -39 -104.5t-96 -55.5h-379q-57 10 -96 55t-39 105zM225 223h199v90v740v4v61v90h-199v-985z" />
<glyph unicode="P" horiz-adv-x="786" d="M0 0v150v1208v76h145h80h221h41q63 0 108.5 -41t53.5 -103l2 -20v-389v-2q0 -66 -48 -114t-116 -48h-161h-101v-492v-225h-225zM225 942h201v264h-201v-264z" />
<glyph unicode="Q" d="M0 160v1112q0 59 39 105t98 57h379q57 -10 96 -56.5t39 -105.5v-1112q0 -59 -39 -104.5t-96 -55.5h-57l59 -152h-231l-62 152h-88q-59 10 -98 55t-39 105zM225 223h201v985h-201v-985z" />
<glyph unicode="R" d="M0 0v150v1208v76h145h80h221h41q63 0 108.5 -41t53.5 -103l2 -20v-389q0 -63 -42 -109.5t-101 -54.5l182 -717h-207l-258 942h201v264h-201v-205v-59v-301v-416v-225h-225z" />
<glyph unicode="S" horiz-adv-x="757" d="M0 203v153v41h41h145h41v-41v-131h172v492h-194q-86 0 -145.5 59.5t-59.5 145.5v14v18v279q0 74 49 133q49 55 123 68h4h2h268h3h4q73 -13 122 -68q49 -59 50 -133v-154v-41h-41h-144h-41v41v131h-172v-256v-10h193q86 0 145.5 -59.5t59.5 -145.5v-204v-332 q0 -74 -50 -133q-49 -55 -122 -68l-4 -2h-3h-268h-2l-4 2q-74 12 -123 68q-49 59 -49 133z" />
<glyph unicode="T" horiz-adv-x="776" d="M-2 1208v226h217h225h203v-226h-203v-940v-268h-225v268v940h-217z" />
<glyph unicode="U" d="M0 203v1235h225v-1215h201v1215h225v-1235q0 -78 -49 -133q-49 -57 -121 -68l-4 -2h-4h-297h-2l-4 2q-72 10 -121 68q-49 55 -49 133z" />
<glyph unicode="V" horiz-adv-x="868" d="M0 1434h49h146h34l7 -35l141 -975l141 975l6 35h35h146h47l-7 -50l-231 -1351l-4 -33h-35h-196h-35l-6 33l-230 1351z" />
<glyph unicode="W" horiz-adv-x="1159" d="M2 1434h47h146h36l97 -834l102 528l6 33h33h127h35l6 -33l86 -510l94 816h37h145h45l-174 -1397l-4 -37h-37h-196h-35l-4 35l-70 393l-67 -393l-6 -35h-35h-197h-37l-4 37z" />
<glyph unicode="X" horiz-adv-x="870" d="M-6 1434h246l133 -420l131 420h246l-5 -15l-215 -637l197 -729l14 -53h-53h-153h-31l-8 33l-123 479l-119 -479l-8 -33h-33h-154h-53l14 53l195 729z" />
<glyph unicode="Y" horiz-adv-x="868" d="M6 1434h53h146h31l8 -29l139 -508l139 508l8 29h31h146h53l-15 -52l-249 -888v-492v-2h-41h-144h-41v2v492l-252 888z" />
<glyph unicode="Z" horiz-adv-x="739" d="M0 0v41v143v6l2 7l352 1011h-313h-41v41v144v41h41h524h41v-41v-144v-8l-2 -6l-352 -1010h313h41v-41v-143v-41h-41h-524h-41z" />
<glyph unicode="[" horiz-adv-x="501" d="M0 0v1434h360v-226h-135v-979h135v-229h-360z" />
<glyph unicode="\" horiz-adv-x="645" d="M-219 1434h221l543 -1420l6 -14h-221l-543 1417z" />
<glyph unicode="]" horiz-adv-x="501" d="M0 0v225h135v979h-135v230h360v-1434h-360z" />
<glyph unicode="^" horiz-adv-x="686" d="M0 418v272l244 295l32 39l31 -39l246 -295v-272l-33 39l-244 295l-243 -297z" />
<glyph unicode="_" horiz-adv-x="1183" d="M0 0h1040v-225h-1040v225z" />
<glyph unicode="`" horiz-adv-x="286" d="M0 1253v181h143v-181v-166z" />
<glyph unicode="a" horiz-adv-x="823" d="M0 299v225h88l145 910h279l231 -1434h-229l-141 995l-58 -469v-2h58v-225h-94l-48 -299h-227l47 299h-51z" />
<glyph unicode="b" horiz-adv-x="745" d="M0 0v940h225h162v266h-162v-266l-225 446v48h449q68 0 115.5 -48.5t47.5 -115.5v-398q-31 -37 -86 -53q51 -14 80 -53q6 -18 6 -39v-563q0 -68 -48 -116t-115 -48h-449zM225 227h162v488h-162v-488z" />
<glyph unicode="c" d="M0 162v1110q0 61 39 106t98 56h377q59 -10 98 -55.5t39 -106.5v-152v-65h-225v65v90h-201v-987h201v92v66h225v-66v-153q0 -61 -39 -106.5t-98 -55.5h-377q-59 10 -98 55t-39 107z" />
<glyph unicode="d" d="M0 0v940h225v-715h201v981h-201v-266l-225 446v48h489q33 0 63 -13.5t51.5 -36t34.5 -53.5t13 -63v-1106q0 -68 -48 -115t-114 -47h-489z" />
<glyph unicode="e" horiz-adv-x="718" d="M0 0v150v790h225l-225 444v50h225h361v-144v-82h-361v-268h287v-41v-143v-41h-287v-490h361v-82v-143h-361h-225z" />
<glyph unicode="f" horiz-adv-x="718" d="M0 0v150v790h225l-225 444v50h225h361v-144v-82h-361v-268h287v-41v-143v-41h-287v-715h-225z" />
<glyph unicode="g" d="M0 160v1112q0 59 39 105t98 57h377q59 -10 98 -56.5t39 -105.5v-219h-225v155h-201v-985h201v494h-94v225h319v-782q0 -59 -39 -104.5t-98 -55.5h-377q-59 10 -98 55t-39 105z" />
<glyph unicode="h" horiz-adv-x="782" d="M0 0v942h223l-223 444v48h225v-492h199v492h225v-1434h-225v717h-199v-717h-225z" />
<glyph unicode="i" horiz-adv-x="358" d="M0 0v1434h225v-1434h-225z" />
<glyph unicode="j" d="M0 160v153v66h225v-66v-90h201v985v226h225v-1182v-92q0 -59 -39 -104.5t-98 -55.5h-377q-59 10 -98 55t-39 105z" />
<glyph unicode="k" horiz-adv-x="776" d="M0 0v940h225l187 492h250l-265 -607l260 -825h-55h-153h-31l-166 526l-27 -55v-471h-41h-143h-41zM0 1386v48h225v-494z" />
<glyph unicode="l" horiz-adv-x="718" d="M0 0v225v1209h225v-1209h357v-225h-357h-225z" />
<glyph unicode="m" horiz-adv-x="1030" d="M0 0v1434h350l99 -572l98 572h350v-1434h-225v770l-125 -664h-197l-125 664v-770h-225z" />
<glyph unicode="n" horiz-adv-x="788" d="M0 0v1434h82h143v-4l205 -676v680h82h143v-1434h-225l-205 641v-641h-225z" />
<glyph unicode="o" horiz-adv-x="782" d="M0 160v1112q0 59 39 105t96 57h379q57 -10 96 -56.5t39 -105.5v-154v-61v-4v-740v-153q0 -59 -39 -104.5t-96 -55.5h-379q-57 10 -96 55t-39 105zM225 223h199v90v740v4v61v90h-199v-985z" />
<glyph unicode="p" horiz-adv-x="786" d="M0 0v942h223h201v264h-201v-264l-223 444v48h487q61 0 107.5 -42t54.5 -102v2v-22v-391q0 -68 -47 -115t-115 -47h-262l-2 -717h-223z" />
<glyph unicode="q" d="M0 160v1112q0 59 39 105t98 57h379q57 -10 96 -56.5t39 -105.5v-1112q0 -59 -39 -104.5t-96 -55.5h-57l59 -152h-231l-62 152h-88q-59 10 -98 55t-39 105zM225 223h201v985h-201v-985z" />
<glyph unicode="r" d="M0 0v942h225v-942h-225zM0 1386v48h487q63 0 108.5 -41t53.5 -103l2 -409v-2q0 -61 -42 -107.5t-101 -54.5l192 -717h-217l-258 942h201v264h-201v-264z" />
<glyph unicode="s" horiz-adv-x="757" d="M0 203v153v41h41h145h41v-41v-131h172v492h-194q-86 0 -145.5 59.5t-59.5 145.5v14v18v279q0 74 49 133q49 55 123 68h4h2h268h3h4q73 -13 122 -68q49 -59 50 -133v-154v-41h-41h-144h-41v41v131h-172v-256v-10h193q86 0 145.5 -59.5t59.5 -145.5v-204v-332 q0 -74 -50 -133q-49 -55 -122 -68l-4 -2h-3h-268h-2l-4 2q-74 12 -123 68q-49 59 -49 133z" />
<glyph unicode="t" horiz-adv-x="776" d="M-2 1208v226h217h225h203v-226h-203v-940v-268h-225v268v940h-217z" />
<glyph unicode="u" d="M0 203v1235h225v-1215h201v1215h225v-1235q0 -78 -49 -133q-49 -57 -121 -68l-4 -2h-4h-297h-2l-4 2q-72 10 -121 68q-49 55 -49 133z" />
<glyph unicode="v" horiz-adv-x="868" d="M0 1434h49h146h34l7 -35l141 -975l141 975l6 35h35h146h47l-7 -50l-231 -1351l-4 -33h-35h-196h-35l-6 33l-230 1351z" />
<glyph unicode="w" horiz-adv-x="1159" d="M2 1434h47h146h36l97 -834l102 528l6 33h33h127h35l6 -33l86 -510l94 816h37h145h45l-174 -1397l-4 -37h-37h-196h-35l-4 35l-70 393l-67 -393l-6 -35h-35h-197h-37l-4 37z" />
<glyph unicode="x" horiz-adv-x="870" d="M-6 1434h246l133 -420l131 420h246l-5 -15l-215 -637l197 -729l14 -53h-53h-153h-31l-8 33l-123 479l-119 -479l-8 -33h-33h-154h-53l14 53l195 729z" />
<glyph unicode="y" horiz-adv-x="868" d="M6 1434h53h146h31l8 -29l139 -508l139 508l8 29h31h146h53l-15 -52l-249 -888v-492v-2h-41h-144h-41v2v492l-252 888z" />
<glyph unicode="z" horiz-adv-x="739" d="M0 0v41v143v6l2 7l180 516h-182v225h260l94 270h-313h-41v41v144v41h41h524h41v-41v-144v-6l-2 -6l-104 -299h106v-41v-143v-41h-184l-170 -488h313h41v-41v-143v-41h-41h-524h-41z" />
<glyph unicode="{" horiz-adv-x="628" d="M0 633v41v143v41h41h33h41v141v41v191q0 86 59 144.5t145 58.5h11h114h41v-41v-144v-41h-41h-43h-61v-370v-23.5t-4 -23.5l-2 -9l-6 -8q-12 -14 -27 -26q8 -6 14.5 -13.5t12.5 -15.5l4 -6l2 -8q6 -25 6 -52v-428h104h41v-41v-143v-41h-41h-125h-18h-2h-2q-78 10 -129 68 q-53 57 -53 137v313v41v74h-41h-33h-41z" />
<glyph unicode="|" horiz-adv-x="358" d="M0 -211v1835h225v-1835h-225z" />
<glyph unicode="}" horiz-adv-x="628" d="M2 0v41v143v41h41h43h61v371v23.5t5 23.5l2 8l6 8q12 14 26 27q-8 6 -14 13.5t-12 15.5l-4 6l-2 8q-6 25 -7 51v428h-104h-41v41v144v41h41h125h18h2h2q78 -10 129 -68q53 -57 54 -137v-314v-41v-73h41h32h41v-41v-144v-41h-41h-32h-41v-141v-41v-190q0 -86 -59.5 -144.5 t-145.5 -58.5h-10h-115h-41z" />
<glyph unicode="~" horiz-adv-x="751" d="M0 272v267q70 61 158 61q45 0 88 -13.5t84 -29.5q35 -14 68.5 -24.5t62.5 -10.5q23 0 51.5 11.5t62.5 54.5l33 43v-269q-74 -61 -157 -61q-47 0 -90.5 13.5t-84.5 29.5q-35 12 -68.5 23.5t-64.5 11.5q-61 0 -110 -64z" />
<glyph unicode="&#xad;" horiz-adv-x="663" d="M0 614v226h520v-226h-520z" />
<glyph unicode="&#x2000;" horiz-adv-x="812" />
<glyph unicode="&#x2001;" horiz-adv-x="1624" />
<glyph unicode="&#x2002;" horiz-adv-x="812" />
<glyph unicode="&#x2003;" horiz-adv-x="1624" />
<glyph unicode="&#x2004;" horiz-adv-x="541" />
<glyph unicode="&#x2005;" horiz-adv-x="406" />
<glyph unicode="&#x2006;" horiz-adv-x="270" />
<glyph unicode="&#x2007;" horiz-adv-x="270" />
<glyph unicode="&#x2008;" horiz-adv-x="203" />
<glyph unicode="&#x2009;" horiz-adv-x="324" />
<glyph unicode="&#x200a;" horiz-adv-x="90" />
<glyph unicode="&#x2010;" horiz-adv-x="663" d="M0 614v226h520v-226h-520z" />
<glyph unicode="&#x2011;" horiz-adv-x="663" d="M0 614v226h520v-226h-520z" />
<glyph unicode="&#x2012;" horiz-adv-x="663" d="M0 614v226h520v-226h-520z" />
<glyph unicode="&#x2013;" horiz-adv-x="1167" d="M0 614v226h1024v-226h-1024z" />
<glyph unicode="&#x2014;" horiz-adv-x="2191" d="M0 614v226h2048v-226h-2048z" />
<glyph unicode="&#x2018;" horiz-adv-x="358" d="M0 1196v238h225v-238h-94v-168z" />
<glyph unicode="&#x2019;" horiz-adv-x="358" d="M0 1196v238h225v-238l-133 -168v168h-92z" />
<glyph unicode="&#x201c;" horiz-adv-x="622" d="M0 1194v238h225v-238h-94v-168zM264 1194v238h225v-238h-92v-168z" />
<glyph unicode="&#x201d;" horiz-adv-x="622" d="M0 1196v238h225v-238l-133 -168v168h-92zM264 1196v238h225v-238l-131 -168v168h-94z" />
<glyph unicode="&#x2022;" horiz-adv-x="636" d="M0 614q0 45 17.5 84t46 68t68.5 46t85 17t84 -17t67.5 -46t46 -68t17.5 -84t-17.5 -85t-46 -68.5t-67.5 -46t-84 -17.5q-92 0 -154.5 62.5t-62.5 154.5z" />
<glyph unicode="&#x202f;" horiz-adv-x="324" />
<glyph unicode="&#x205f;" horiz-adv-x="406" />
<glyph unicode="&#x25fc;" horiz-adv-x="1433" d="M0 0v1434h1434v-1434h-1434z" />
</font>
</defs>
</svg>
